<?xml version="1.0" encoding="UTF-8"?>
<svg version="1.1" xmlns="http://www.w3.org/2000/svg" width="1080" height="1080">
<path d="M0 0 C0.84755859 0.1556543 1.69511719 0.31130859 2.56835938 0.47167969 C34.25026388 6.49773669 62.3060781 21.37114468 86 43 C87.24973641 44.06281003 88.49974924 45.12529508 89.75 46.1875 C100.02618967 55.2369821 108.86167285 65.01106558 117 76 C118.15628906 77.53914063 118.15628906 77.53914063 119.3359375 79.109375 C129.74101733 93.4939415 139.1037313 110.53245829 143 128 C143.38929688 127.13761719 143.77859375 126.27523437 144.1796875 125.38671875 C146.07226842 121.23495247 148.0246834 117.11297598 150 113 C150.35884277 112.25121582 150.71768555 111.50243164 151.08740234 110.73095703 C160.00451922 92.36804046 171.74140498 76.55832525 186 62 C186.94746094 60.99453125 186.94746094 60.99453125 187.9140625 59.96875 C192.85499656 54.81706519 198.42910625 50.44538917 204 46 C205.09826819 45.09970432 206.19590674 44.19864009 207.29296875 43.296875 C245.51043103 12.17834454 294.83332249 1.06053815 343.3671875 5.49609375 C393.06847481 11.05192789 436.79626831 33.14055499 474 66 C474.78987305 66.69512695 474.78987305 66.69512695 475.59570312 67.40429688 C487.34108939 77.80816879 498.17131149 89.14953238 507.9453125 101.4296875 C509.28484311 103.10537408 510.65373213 104.75813042 512.0546875 106.3828125 C527.75661541 124.73048651 539.92322947 146.48512185 551.3125 167.6875 C551.69188721 168.38842773 552.07127441 169.08935547 552.4621582 169.81152344 C554.00201171 172.73808776 555 174.64324648 555 178 C551.60072751 176.70234929 548.44055849 175.22864475 545.26171875 173.4609375 C544.36767334 172.96698486 543.47362793 172.47303223 542.55249023 171.96411133 C541.60704346 171.43970459 540.66159668 170.91529785 539.6875 170.375 C523.7994657 161.65432405 507.78979753 153.84960081 491 147 C490.23381348 146.68675781 489.46762695 146.37351563 488.67822266 146.05078125 C454.07266898 132.11422941 416.92716237 125.88401865 380 122 C379.0217627 121.8954248 378.04352539 121.79084961 377.03564453 121.68310547 C368.11745407 120.82960975 359.20159163 120.75979112 350.25 120.75 C349.44028748 120.74832825 348.63057495 120.74665649 347.79632568 120.74493408 C331.76167818 120.74295816 315.41625815 121.16929241 300 126 C301.670625 125.76023438 301.670625 125.76023438 303.375 125.515625 C311.21644906 124.65318793 319.12052014 124.75651719 327 124.75 C327.8435907 124.74899292 328.6871814 124.74798584 329.55633545 124.74694824 C343.88545402 124.75848292 357.85080192 125.60300152 372 128 C373.31556885 128.2168042 373.31556885 128.2168042 374.65771484 128.43798828 C405.60652787 133.67833671 435.46804605 145.58648556 461 164 C461.95777344 164.68449219 462.91554688 165.36898437 463.90234375 166.07421875 C475.52695827 174.58264226 486.15555615 183.98563747 496.375 194.125 C497.50941528 195.24551758 497.50941528 195.24551758 498.66674805 196.38867188 C499.36195557 197.08798828 500.05716309 197.78730469 500.7734375 198.5078125 C501.39653809 199.13316895 502.01963867 199.75852539 502.66162109 200.40283203 C504 202 504 202 504 204 C504.66 204 505.32 204 506 204 C508.92133021 207.11169258 511.41894832 210.60476291 514 214 C514.42522949 214.55703613 514.85045898 215.11407227 515.28857422 215.68798828 C540.24094295 248.52197733 557.45859146 285.99300258 565.75 326.4375 C565.9365918 327.33968262 566.12318359 328.24186523 566.31542969 329.17138672 C566.94476109 332.43950355 567.48394451 335.71189956 568 339 C568.12601593 339.79343811 568.25203186 340.58687622 568.38186646 341.40435791 C570.9589904 358.10350631 571.52917899 374.59746181 571.44703293 391.47746277 C571.43734354 393.53319416 571.43205625 395.58890514 571.42727661 397.64465332 C571.3659046 417.6967739 570.75055972 437.24510289 567 457 C566.7498956 458.37613552 566.50074778 459.75244516 566.25244141 461.12890625 C561.92425537 484.89764094 555.69955805 507.97119995 548.1875 530.9375 C547.90970703 531.78997314 547.63191406 532.64244629 547.34570312 533.52075195 C545.94686873 537.67088257 544.46501288 541.33579166 542 545 C541.34 544.67 540.68 544.34 540 544 C539.34460022 541.92974206 538.79876033 539.8245916 538.30078125 537.7109375 C537.97925966 536.3749972 537.65772595 535.03905983 537.33618164 533.703125 C537.16958038 532.99736328 537.00297913 532.29160156 536.83132935 531.56445312 C535.95784403 527.87835639 535.05038735 524.20072348 534.140625 520.5234375 C533.95879166 519.78816833 533.77695831 519.05289917 533.58961487 518.29534912 C521.3845599 469.2918671 499.73492456 419.17990136 469.23486328 378.66943359 C467.33604378 376.1023858 465.52349425 373.47649689 463.69921875 370.85620117 C457.07608098 361.35469393 450.12101816 352.13267494 443 343 C441.92298828 341.61554688 441.92298828 341.61554688 440.82421875 340.203125 C438.91036926 337.77812316 436.963584 335.38488938 435 333 C434.20335937 332.01773437 433.40671875 331.03546875 432.5859375 330.0234375 C426.10071494 322.16505334 419.07468545 314.8862706 411.875 307.6875 C411.40180328 307.21339691 410.92860657 306.73929382 410.44107056 306.25082397 C405.66519868 301.038641 405.66519868 301.038641 400 297 C400 296.34 400 295.68 400 295 C399.47019531 294.773125 398.94039062 294.54625 398.39453125 294.3125 C395.20218989 292.56270115 392.50013022 290.28894788 389.6875 288 C377.59339962 278.35590154 364.68529889 270.19331998 351 263 C350.25105469 262.60312988 349.50210938 262.20625977 348.73046875 261.79736328 C327.94094347 250.9328539 305.07952172 243.19059066 282 239 C283.55526911 240.55526911 285.47166321 241.0937054 287.49609375 241.93359375 C335.64832707 262.18503319 372.8832248 294.48954232 393.03417969 343.56103516 C405.03948372 373.87776602 410.22539147 405.93505434 410.25 438.4375 C410.25101212 439.64995392 410.25101212 439.64995392 410.25204468 440.88690186 C410.17748212 497.64503576 410.17748212 497.64503576 401 516 C400.01 516 399.02 516 398 516 C397.8047876 515.0613208 397.6095752 514.1226416 397.40844727 513.15551758 C387.66860419 466.62058746 373.11049731 421.20818027 347 381 C346.48856445 380.20819336 345.97712891 379.41638672 345.45019531 378.60058594 C334.51364356 361.74453877 322.93324571 345.79164805 309.57275391 330.77758789 C308.48376472 329.54676978 307.40323916 328.30843076 306.32958984 327.06420898 C296.55515707 315.74521191 285.91185247 305.06266614 274 296 C273.41283203 295.54705566 272.82566406 295.09411133 272.22070312 294.62744141 C253.18455857 279.95414927 233.17012224 267.22080551 211.5 256.75 C210.7560498 256.38648438 210.01209961 256.02296875 209.24560547 255.6484375 C203.00301938 252.70891043 196.5800658 250.28081169 190.13085938 247.84082031 C189.15590515 247.4707486 188.18095093 247.10067688 187.17645264 246.71939087 C184.78474753 245.81174409 182.39258808 244.9053161 180 244 C180.5894991 255.64061225 181.17900781 267.28122402 181.76852255 278.92183548 C181.87024679 280.93049194 181.97197091 282.9391484 182.0736949 284.94780487 C183.40237231 311.184041 184.7311477 337.42027216 186.06010437 363.65649414 C186.18413265 366.10506963 186.30816083 368.55364513 186.43218893 371.00222063 C186.49408411 372.22416092 186.55597928 373.44610121 186.61975007 374.70506999 C186.74571849 377.19195023 186.87168688 379.67883047 186.99765525 382.16571072 C187.31883133 388.50639721 187.64000904 394.84708362 187.96118963 401.18776989 C189.42172164 430.02144057 190.88199852 458.85512413 192.34158325 487.68884277 C193.9213541 518.89674769 195.50144341 550.10463645 197.08203125 581.3125 C197.14690936 582.5935166 197.21178748 583.8745332 197.2786316 585.19436848 C200.45576661 647.92633509 203.6392015 710.65795874 206.8569392 773.38785689 C207.22909783 780.64375345 207.60068288 787.89967935 207.97218095 795.15560976 C208.28444686 801.25445941 208.59682115 807.35330352 208.90917969 813.45214844 C208.97482943 814.73410835 209.04047917 816.01606826 209.1081183 817.33687544 C209.85717038 831.9615793 210.60921387 846.58612253 211.36628646 861.21041346 C211.82181713 870.01333952 212.27431682 878.81641775 212.72427636 887.61963034 C213.01924174 893.38736139 213.31779885 899.15488762 213.61975491 904.92225671 C213.79719304 908.32974242 213.97079012 911.73741562 214.1432538 915.14515638 C214.22096244 916.66598558 214.30018125 918.1867387 214.38121939 919.70739412 C214.59716297 923.76725987 214.78581091 927.82646386 214.92588305 931.88985538 C214.97828186 933.38167438 215.03716526 934.87327229 215.10063672 936.36466122 C215.19769217 938.80167247 215.26217223 941.23772581 215.31947327 943.67596436 C215.37031764 944.79687812 215.37031764 944.79687812 215.42218918 945.9404366 C215.4989282 951.26303382 214.25930684 953.86042653 210.625 957.6875 C208.79642351 959.18360804 206.92111958 960.62474336 205 962 C204.22011719 962.61746094 203.44023438 963.23492188 202.63671875 963.87109375 C197.87530012 967.46416428 192.72138997 970.38693237 187.5 973.25 C186.90743408 973.5795166 186.31486816 973.9090332 185.7043457 974.24853516 C175.2186591 979.81527441 165.03754974 980.60658893 153.375 980.5625 C152.61676941 980.56234894 151.85853882 980.56219788 151.07733154 980.56204224 C139.65382381 980.51714873 130.125538 979.71151578 120 974 C118.97390625 973.49339844 117.9478125 972.98679687 116.890625 972.46484375 C107.77151118 967.65722804 96.58841333 959.92476759 91 951 C90.72621983 948.36320376 90.72621983 948.36320376 90.87039471 945.31232834 C90.91697289 944.15853597 90.96355107 943.0047436 91.01154071 941.81598783 C91.07836384 940.55661114 91.14518696 939.29723444 91.21403503 937.99969482 C91.27397807 936.65520472 91.3324497 935.31064831 91.3895542 933.96603465 C91.51367537 931.10543362 91.64711989 928.245481 91.787853 925.38564968 C91.99667651 921.12501592 92.18013762 916.86359385 92.35726357 912.60153961 C92.70762856 904.23919091 93.08310398 895.87806698 93.46186927 887.51696293 C93.65924395 883.15119538 93.85455734 878.78533547 94.05015373 874.41948795 C94.3902375 866.83468956 94.73158223 859.24994879 95.07381248 851.66524696 C95.57778985 840.49576214 96.07978147 829.32618869 96.5813765 818.15659667 C97.41460528 799.60342927 98.24944242 781.0503346 99.08526611 762.49728394 C99.90355896 744.33335855 100.72114121 726.16940141 101.53778076 708.00540161 C101.6137334 706.31605817 101.6137334 706.31605817 101.69122043 704.59258657 C101.89605633 700.0365737 102.10088804 695.48056065 102.30571403 690.92454734 C104.72875897 637.02822417 107.15558236 583.13207143 109.5838768 529.23598455 C109.89956692 522.22922074 110.21523649 515.22245601 110.53089142 508.21569061 C114.3483912 423.47687698 118.17018265 338.73825791 122 254 C119.16721153 256.78241745 116.34175719 259.57207713 113.5222168 262.36791992 C112.10370567 263.77172162 110.67985854 265.17012498 109.25585938 266.56835938 C103.051593 272.72908704 97.43683361 279.15846322 92 286 C90.94062488 287.26004731 89.87684566 288.51643657 88.8046875 289.765625 C75.28480149 305.74325987 64.15150848 323.72649505 54 342 C53.54061035 342.82306641 53.0812207 343.64613281 52.60791016 344.49414062 C32.46477069 380.92250763 18.8804443 420.95875332 12 462 C11.01 462 10.02 462 9 462 C6.76060667 454.26391395 5.28651496 446.43149661 3.9375 438.5 C3.69435059 437.1068457 3.69435059 437.1068457 3.44628906 435.68554688 C0.6994681 419.11547476 -0.38479856 402.59190721 -0.3125 385.8125 C-0.30976578 384.47978561 -0.30976578 384.47978561 -0.30697632 383.12014771 C-0.25698903 368.56863747 0.48838494 354.3588559 3 340 C3.16097168 339.03497559 3.32194336 338.06995117 3.48779297 337.07568359 C8.53314039 307.5936006 18.57885526 275.99392802 37 252 C37.65484375 251.13890625 38.3096875 250.2778125 38.984375 249.390625 C43.41888075 243.71858277 48.16077428 238.3282964 53 233 C19.03316885 235.84117065 -12.91008064 246.18401838 -43 262 C-44.07338623 262.56050049 -44.07338623 262.56050049 -45.16845703 263.13232422 C-63.21033866 272.67155244 -79.0078086 285.26266163 -94 299 C-95.04253572 299.93798152 -96.08552622 300.87545776 -97.12890625 301.8125 C-108.10196914 311.72512714 -117.7892458 322.42032086 -127 334 C-127.42780762 334.53351074 -127.85561523 335.06702148 -128.29638672 335.61669922 C-134.21761129 343.00490345 -139.8988199 350.5189712 -145.34765625 358.26171875 C-147.21785642 360.91512278 -149.12600523 363.53622933 -151.05859375 366.14453125 C-162.53109451 381.67883282 -172.68559225 398.02531359 -181.90527344 414.99121094 C-182.64971731 416.35724219 -183.40062232 417.71976787 -184.15722656 419.07910156 C-205.2981276 457.09123678 -218.3040354 498.79213633 -228 541 C-229.8449707 540.87817383 -229.8449707 540.87817383 -232 540 C-233.32104492 537.4284668 -233.32104492 537.4284668 -234.48046875 533.94921875 C-234.69462936 533.31641495 -234.90878998 532.68361115 -235.12944031 532.03163147 C-235.83492044 529.92279484 -236.51272138 527.80634615 -237.1875 525.6875 C-237.42511047 524.95704468 -237.66272095 524.22658936 -237.90753174 523.47399902 C-248.24732447 491.64292942 -256.24682749 458.4160964 -259 425 C-259.08540039 423.97052246 -259.17080078 422.94104492 -259.25878906 421.88037109 C-260.04714049 411.37608281 -260.24278778 400.90544672 -260.25 390.375 C-260.25067474 389.47981659 -260.25134949 388.58463318 -260.25204468 387.662323 C-260.16835952 317.22366864 -237.94394902 251.85087967 -191.4597168 198.68310547 C-190.44457709 197.51261322 -189.43887851 196.33389335 -188.44067383 195.14892578 C-185.80619619 192.02355425 -183.22007687 189.11685017 -180.0625 186.5 C-177.47394422 184.34561812 -175.09307573 182.08631208 -172.74609375 179.67578125 C-169.08081439 175.9846454 -165.15170761 172.8122443 -161 169.6875 C-160.26015869 169.12772461 -159.52031738 168.56794922 -158.75805664 167.99121094 C-109.87029955 131.32930999 -57.26769225 120.99691021 3 122 C-38.59660086 110.71074607 -79.52531124 110.81718365 -122 117 C-124.24473165 117.30382917 -126.48951975 117.60724168 -128.734375 117.91015625 C-169.04621625 123.60377782 -236.68319202 138.68319202 -267 169 C-267.99 169 -268.98 169 -270 169 C-269.05866698 163.24811744 -266.50322848 158.67909303 -263.8125 153.5625 C-263.28003662 152.54841064 -262.74757324 151.53432129 -262.19897461 150.48950195 C-248.1667536 124.20172839 -230.50230371 97.55123928 -208.87890625 76.84375 C-207.10117195 75.09927892 -205.51835657 73.29732159 -203.9375 71.375 C-201.31478928 68.24489838 -198.42703149 65.64233031 -195.31640625 63.00390625 C-193.09991191 61.08643307 -190.95743543 59.10354152 -188.82128906 57.09741211 C-138.8786427 10.42770616 -67.61869642 -12.86869928 0 0 Z M289 127 C293 128 293 128 293 128 Z " fill="#010101" transform="translate(384,56)"/>
<path d="M0 0 C0 0.66 0 1.32 0 2 C-0.84256348 2.2928186 -0.84256348 2.2928186 -1.70214844 2.59155273 C-14.61511925 7.10847326 -27.17941201 12.05625835 -39.56640625 17.86328125 C-41.99552179 18.99790825 -44.43401514 20.10992381 -46.875 21.21875 C-55.74720186 25.28860844 -64.25535274 29.69195575 -72.57104492 34.81420898 C-75.70174013 36.73123584 -78.40857924 38.24153281 -82 39 C-81.67 37.35 -81.34 35.7 -81 34 C-80.01 34.33 -79.02 34.66 -78 35 C-76.18204613 34.34456196 -76.18204613 34.34456196 -74.33203125 33.19140625 C-73.61241211 32.77826172 -72.89279297 32.36511719 -72.15136719 31.93945312 C-70.99362793 31.25786133 -70.99362793 31.25786133 -69.8125 30.5625 C-68.16940824 29.62377798 -66.52484968 28.68761916 -64.87890625 27.75390625 C-63.64164795 27.05031982 -63.64164795 27.05031982 -62.37939453 26.33251953 C-46.10187178 17.21670595 -28.79330604 9.34943517 -11.3125 2.875 C-10.51674561 2.57972412 -9.72099121 2.28444824 -8.90112305 1.98022461 C-5.81594001 0.87037105 -3.30393861 0 0 0 Z " fill="#252525" transform="translate(196,186)"/>
<path d="M0 0 C10.55808656 3.07517084 10.55808656 3.07517084 15 5 C11.91106131 5.9499686 9.60251979 5.97887894 6.41015625 5.5703125 C-1.08233544 4.7975833 -8.55258543 4.8503769 -16.07641602 4.86962891 C-18.53343022 4.8749372 -20.99025734 4.86968292 -23.44726562 4.86328125 C-34.32903679 4.85919665 -45.14250129 5.28480127 -56 6 C-56 5.34 -56 4.68 -56 4 C-37.39106243 1.38165702 -18.74283168 1.8008689 0 2 C0 1.34 0 0.68 0 0 Z " fill="#252525" transform="translate(387,176)"/>
<path d="M0 0 C0.66 0.33 1.32 0.66 2 1 C-3.54664265 7.56117275 -9.4917138 13.6749416 -15.5625 19.75 C-16.48224609 20.68199219 -17.40199219 21.61398438 -18.34960938 22.57421875 C-19.24615234 23.47269531 -20.14269531 24.37117188 -21.06640625 25.296875 C-21.87021729 26.10479492 -22.67402832 26.91271484 -23.50219727 27.74511719 C-26.20394262 30.1841085 -28.93064816 32.05454597 -32 34 C-30.45258791 30.26042079 -28.14700474 27.97476972 -25.25 25.1875 C-22.31594754 22.32070375 -19.47436333 19.48630826 -16.875 16.3125 C-14.19102021 13.08262601 -11.16359082 10.42655219 -7.96875 7.7109375 C-5.16594984 5.27517069 -2.59235026 2.65715902 0 0 Z " fill="#2A2A2A" transform="translate(197,111)"/>
<path d="M0 0 C-1.0745681 3.22370429 -1.6055631 3.74568921 -4.125 5.8125 C-21.56642886 20.51084098 -21.56642886 20.51084098 -36 38 C-36.66 38 -37.32 38 -38 38 C-36.70051853 35.16196332 -35.30013543 33.02039548 -33.1640625 30.75 C-32.60025879 30.14736328 -32.03645508 29.54472656 -31.45556641 28.92382812 C-30.85147949 28.28896484 -30.24739258 27.65410156 -29.625 27 C-28.68986572 26.0090332 -28.68986572 26.0090332 -27.73583984 24.99804688 C-4.04303266 0 -4.04303266 0 0 0 Z " fill="#2B2B2B" transform="translate(300,344)"/>
<path d="M0 0 C0.66 0.66 1.32 1.32 2 2 C1.53851563 2.79019531 1.07703125 3.58039063 0.6015625 4.39453125 C-3.50969751 11.50392356 -7.47734237 18.67510475 -11.3125 25.9375 C-11.73257324 26.72938721 -12.15264648 27.52127441 -12.58544922 28.3371582 C-14.9384488 32.81957987 -17.07358574 37.31800289 -19 42 C-19.66 42 -20.32 42 -21 42 C-19.55946663 37.27825173 -17.61159726 32.94869472 -15.375 28.5625 C-15.02671143 27.87309326 -14.67842285 27.18368652 -14.31958008 26.47338867 C-5.15770142 8.42689062 -5.15770142 8.42689062 0 0 Z " fill="#373737" transform="translate(207,457)"/>
<path d="M0 0 C4.71380794 3.85675195 9.10825067 7.9718936 13.4375 12.25 C13.98180664 12.78141602 14.52611328 13.31283203 15.08691406 13.86035156 C16.43127793 15.20129248 17.72074448 16.59681004 19 18 C19 18.66 19 19.32 19 20 C19.66 20 20.32 20 21 20 C25.49157719 24.91934644 29.44487726 30.37105566 33 36 C28.87215441 34.44846639 26.6210858 31.45584894 23.9375 28.125 C22.96427015 26.94623721 21.98895365 25.7691946 21.01171875 24.59375 C20.51462402 23.995625 20.0175293 23.3975 19.50537109 22.78125 C17.1547606 19.99985944 14.71490906 17.30510634 12.25 14.625 C11.79447754 14.1290332 11.33895508 13.63306641 10.86962891 13.12207031 C7.73466007 9.73507234 4.50458243 6.46801437 1.14453125 3.3046875 C0 2 0 2 0 0 Z " fill="#2E2E2E" transform="translate(869,240)"/>
<path d="M0 0 C4.67680504 4.12462412 7.25542675 8.66083827 10.0625 14.1875 C10.49933105 15.03521973 10.93616211 15.88293945 11.38623047 16.75634766 C19.26063124 32.19989393 19.26063124 32.19989393 19 39 C16.39601419 36.39601419 15.72410463 33.89410447 14.4375 30.4375 C11.80998913 23.57865102 8.59821824 17.16214082 5.07202148 10.72436523 C3.14845982 7.20923783 1.38076968 3.77508305 0 0 Z " fill="#1B1B1B" transform="translate(505,140)"/>
<path d="M0 0 C0.66 0.33 1.32 0.66 2 1 C-0.68058098 4.57410797 -3.42589203 7.31941902 -7 10 C-7.66 9.67 -8.32 9.34 -9 9 C-6.03 6.03 -3.06 3.06 0 0 Z M-11 10 C-10.34 10 -9.68 10 -9 10 C-9.66 11.32 -10.32 12.64 -11 14 C-11.66 13.67 -12.32 13.34 -13 13 C-12.34 12.01 -11.68 11.02 -11 10 Z M-15 14 C-14.34 14.33 -13.68 14.66 -13 15 C-13.99 15.66 -14.98 16.32 -16 17 C-15.67 16.01 -15.34 15.02 -15 14 Z M-17 17 C-17 20.96130371 -18.34877125 21.82914401 -21 24.6875 C-21.7425 25.49574219 -22.485 26.30398438 -23.25 27.13671875 C-23.8275 27.75160156 -24.405 28.36648438 -25 29 C-25.66 28.67 -26.32 28.34 -27 28 C-25.52116808 26.35386588 -24.04192523 24.70810092 -22.5625 23.0625 C-21.73878906 22.14597656 -20.91507813 21.22945312 -20.06640625 20.28515625 C-18 18 -18 18 -17 17 Z " fill="#3D3D3D" transform="translate(215,232)"/>
<path d="M0 0 C9.38672597 6.85849605 18.32264173 14.26745438 27 22 C26.01 22.33 25.02 22.66 24 23 C22.74896484 21.82244141 22.74896484 21.82244141 21.47265625 20.62109375 C15.75149135 15.27054788 10.1007945 10.05511148 3.70703125 5.5 C1.8071336 3.83052472 0.97280076 2.31476694 0 0 Z " fill="#3B3B3B" transform="translate(838,106)"/>
<path d="M0 0 C1.10612152 1.10612152 2.21108198 2.21341365 3.3125 3.32421875 C4.56830735 4.57130521 5.84211419 5.80031808 7.125 7.01953125 C12.23015479 11.94359102 16.33696318 16.92366834 20 23 C16.08608695 21.47154186 14.23354134 19.09115003 11.6875 15.8125 C8.42721602 11.69396246 5.10356647 7.96468614 1.21484375 4.4375 C0 3 0 3 0 0 Z " fill="#343434" transform="translate(736,339)"/>
<path d="M0 0 C4.48229987 1.49130725 7.89693926 3.98135827 11.5625 6.875 C12.12646484 7.30941406 12.69042969 7.74382812 13.27148438 8.19140625 C16.38813688 10.61911452 19.2772527 13.13745394 22 16 C21.67 16.66 21.34 17.32 21 18 C20.154375 17.26394531 19.30875 16.52789062 18.4375 15.76953125 C11.1534149 9.39899151 11.1534149 9.39899151 3.1875 3.9375 C2.135625 3.298125 1.08375 2.65875 0 2 C0 1.34 0 0.68 0 0 Z " fill="#3D3D3D" transform="translate(761,333)"/>
<path d="M0 0 C4.44683855 0.86608018 7.12118334 3.38277111 10.4375 6.3125 C11.56069065 7.28834458 12.68438131 8.26361399 13.80859375 9.23828125 C14.34468262 9.70830566 14.88077148 10.17833008 15.43310547 10.66259766 C16.88456033 11.90146798 18.39557194 13.06962628 19.91015625 14.23046875 C20.59980469 14.81441406 21.28945313 15.39835937 22 16 C22 16.66 22 17.32 22 18 C18.46679901 16.47650967 16.04791612 14.3697049 13.25 11.75 C9.45661939 8.26054009 5.59643462 5.08046732 1.3984375 2.09375 C0.93695313 1.7328125 0.47546875 1.371875 0 1 C0 0.67 0 0.34 0 0 Z " fill="#343434" transform="translate(453,87)"/>
<path d="M0 0 C10.55808656 3.07517084 10.55808656 3.07517084 15 5 C12.10089716 5.86688859 9.88547169 6.0458562 6.890625 5.66015625 C5.75947266 5.5199707 5.75947266 5.5199707 4.60546875 5.37695312 C3.43951172 5.22129883 3.43951172 5.22129883 2.25 5.0625 C1.45722656 4.96259766 0.66445313 4.86269531 -0.15234375 4.75976562 C-2.10240371 4.51307129 -4.05132586 4.2574122 -6 4 C-6 3.67 -6 3.34 -6 3 C-4.02 2.67 -2.04 2.34 0 2 C0 1.34 0 0.68 0 0 Z " fill="#1F1F1F" transform="translate(387,176)"/>
<path d="M0 0 C1.32 0.33 2.64 0.66 4 1 C4 1.66 4 2.32 4 3 C4.56203125 3.22429687 5.1240625 3.44859375 5.703125 3.6796875 C8.67275417 5.38671923 10.50344167 7.54806544 12.75 10.125 C13.94882812 11.49011719 13.94882812 11.49011719 15.171875 12.8828125 C16.07679688 13.93082031 16.07679688 13.93082031 17 15 C16.67 15.99 16.34 16.98 16 18 C15.43152344 17.35933594 14.86304688 16.71867187 14.27734375 16.05859375 C10.04892752 11.32192048 5.78760533 6.68420015 1.21484375 2.27734375 C0 1 0 1 0 0 Z " fill="#3D3D3D" transform="translate(797,364)"/>
<path d="M0 0 C1.65 0 3.3 0 5 0 C4.38511719 0.68835938 4.38511719 0.68835938 3.7578125 1.390625 C3.21898437 2.00421875 2.68015625 2.6178125 2.125 3.25 C1.59132813 3.85328125 1.05765625 4.4565625 0.5078125 5.078125 C-0.9797487 6.97418746 -2.00322436 8.81290005 -3 11 C-3.99 11 -4.98 11 -6 11 C-4.44499019 7.18315774 -1.96404505 4.80804268 1 2 C0.67 1.34 0.34 0.68 0 0 Z M-8 12 C-7.67 12.66 -7.34 13.32 -7 14 C-8.65 15.65 -10.3 17.3 -12 19 C-10.92598892 16.08482708 -10.22189824 14.22189824 -8 12 Z " fill="#1D1D1D" transform="translate(437,286)"/>
<path d="M0 0 C2 3 2 3 1.7578125 5.69921875 C1.54898437 6.68535156 1.34015625 7.67148437 1.125 8.6875 C0.92132813 9.68136719 0.71765625 10.67523437 0.5078125 11.69921875 C0.34023438 12.45847656 0.17265625 13.21773437 0 14 C-0.99 14 -1.98 14 -3 14 C-4.60725635 10.78548731 -4.05748185 7.56387464 -4 4 C-3.34 5.32 -2.68 6.64 -2 8 C-1.34 5.36 -0.68 2.72 0 0 Z " fill="#3D3D3D" transform="translate(396,504)"/>
<path d="M0 0 C5.60047878 5.43076731 11.31304099 11.05984187 15 18 C14.34 18.33 13.68 18.66 13 19 C12.39671875 18.18015625 11.7934375 17.3603125 11.171875 16.515625 C10.36475717 15.42695443 9.55745574 14.33841997 8.75 13.25 C8.15638672 12.44175781 8.15638672 12.44175781 7.55078125 11.6171875 C5.72380291 9.16124941 3.91509557 6.91856105 1.703125 4.796875 C0 3 0 3 0 0 Z " fill="#383838" transform="translate(487,116)"/>
<path d="M0 0 C3.96 0 7.92 0 12 0 C12 0.66 12 1.32 12 2 C13.65 2 15.3 2 17 2 C17.33 3.32 17.66 4.64 18 6 C15.37271142 5.38357466 12.74846418 4.75732213 10.125 4.125 C9.37863281 3.95097656 8.63226562 3.77695312 7.86328125 3.59765625 C2.2265625 2.2265625 2.2265625 2.2265625 0 0 Z " fill="#222222" transform="translate(640,289)"/>
<path d="M0 0 C-1.12202201 3.36606602 -2.09274021 4.19481269 -4.75 6.4375 C-5.46671875 7.0459375 -6.1834375 7.654375 -6.921875 8.28125 C-9.26014318 10.21515601 -11.60876067 12.13184428 -14 14 C-14 11 -14 11 -11.4453125 8.30078125 C-10.34624927 7.29618956 -9.23909313 6.30039723 -8.125 5.3125 C-7.56941406 4.80138672 -7.01382812 4.29027344 -6.44140625 3.76367188 C-2.27071512 0 -2.27071512 0 0 0 Z " fill="#4E4E4E" transform="translate(300,344)"/>
<path d="M0 0 C0.99 0 1.98 0 3 0 C3 0.66 3 1.32 3 2 C4.08861328 2.39832031 4.08861328 2.39832031 5.19921875 2.8046875 C8.00170928 4.00072948 10.30479352 5.40329107 12.8125 7.125 C13.60269531 7.66382813 14.39289062 8.20265625 15.20703125 8.7578125 C16.09455078 9.37269531 16.09455078 9.37269531 17 10 C16.34 10.66 15.68 11.32 15 12 C14.33613281 11.52949219 13.67226563 11.05898438 12.98828125 10.57421875 C12.10527344 9.95160156 11.22226562 9.32898438 10.3125 8.6875 C9.44238281 8.07261719 8.57226562 7.45773437 7.67578125 6.82421875 C5.02123774 4.96054957 5.02123774 4.96054957 2.16796875 3.39453125 C1.45253906 2.93433594 0.73710938 2.47414063 0 2 C0 1.34 0 0.68 0 0 Z " fill="#252525" transform="translate(743,321)"/>
<path d="M0 0 C3.35328711 1.11776237 3.58311383 1.48392095 5.26171875 4.37890625 C5.85629883 5.38920898 5.85629883 5.38920898 6.46289062 6.41992188 C6.86701172 7.12697266 7.27113281 7.83402344 7.6875 8.5625 C8.10322266 9.27341797 8.51894531 9.98433594 8.94726562 10.71679688 C9.97283111 12.47322511 10.98746671 14.23602691 12 16 C11.01 16 10.02 16 9 16 C7.28918759 13.5445853 5.78572539 11.15415488 4.3125 8.5625 C3.89677734 7.85544922 3.48105469 7.14839844 3.05273438 6.41992188 C0 1.18165025 0 1.18165025 0 0 Z " fill="#343434" transform="translate(916,194)"/>
<path d="M0 0 C0.33 0.66 0.66 1.32 1 2 C-0.328125 4.49609375 -0.328125 4.49609375 -2.25 7.4375 C-2.87390625 8.40558594 -3.4978125 9.37367188 -4.140625 10.37109375 C-5.6486471 12.50323423 -7.07911316 14.25104439 -9 16 C-9.66 15.67 -10.32 15.34 -11 15 C-7.37 10.05 -3.74 5.1 0 0 Z " fill="#353535" transform="translate(181,268)"/>
<path d="M0 0 C0.66 0.66 1.32 1.32 2 2 C-2.455 9.425 -2.455 9.425 -7 17 C-8 14 -8 14 -6.34765625 10.64453125 C-5.59622298 9.36110983 -4.83403499 8.08393866 -4.0625 6.8125 C-3.48338867 5.83120117 -3.48338867 5.83120117 -2.89257812 4.83007812 C-1.93746912 3.21464684 -0.96989934 1.60659475 0 0 Z " fill="#262626" transform="translate(207,457)"/>
<path d="M0 0 C6.19861907 -0.67012098 11.35623611 1.75052827 17 4 C17 4.66 17 5.32 17 6 C10.99522721 5.35083537 5.599219 3.14204997 0 1 C0 0.67 0 0.34 0 0 Z " fill="#1F1F1F" transform="translate(767,71)"/>
<path d="M0 0 C2.63884562 2.40111178 4.36413529 5.00555028 6.1875 8.0625 C6.71730469 8.94035156 7.24710938 9.81820313 7.79296875 10.72265625 C9 13 9 13 9 15 C8.34 15 7.68 15 7 15 C5.2734375 12.48046875 5.2734375 12.48046875 3.375 9.1875 C2.74335937 8.10855469 2.11171875 7.02960938 1.4609375 5.91796875 C0 3 0 3 0 0 Z " fill="#303030" transform="translate(866,451)"/>
<path d="M0 0 C0 0.66 0 1.32 0 2 C-1.93475671 2.53093324 -3.87293155 3.04942317 -5.8125 3.5625 C-7.43091797 3.99755859 -7.43091797 3.99755859 -9.08203125 4.44140625 C-12 5 -12 5 -15 4 C-13.06767179 3.13419713 -11.12892806 2.28270059 -9.1875 1.4375 C-8.10855469 0.96183594 -7.02960937 0.48617187 -5.91796875 -0.00390625 C-3 -1 -3 -1 0 0 Z " fill="#272727" transform="translate(664,186)"/>
<path d="M0 0 C1.32 0.33 2.64 0.66 4 1 C4 1.66 4 2.32 4 3 C4.8353125 3.3403125 4.8353125 3.3403125 5.6875 3.6875 C8.63246684 5.35896766 10.68156544 7.55276352 13 10 C8.87731395 10 7.79669528 8.32277298 4.8125 5.5625 C3.91144531 4.73878906 3.01039063 3.91507813 2.08203125 3.06640625 C1.39496094 2.38449219 0.70789063 1.70257812 0 1 C0 0.67 0 0.34 0 0 Z " fill="#3A3A3A" transform="translate(477,1009)"/>
<path d="M0 0 C3.62885578 1.45154231 5.15432673 3.2400638 7.25 6.5 C7.77078125 7.2940625 8.2915625 8.088125 8.828125 8.90625 C10 11 10 11 10 13 C5.90810238 11.63603413 5.38452673 9.65151017 3.3125 5.9375 C2.68988281 4.83277344 2.06726563 3.72804687 1.42578125 2.58984375 C0.72001953 1.30787109 0.72001953 1.30787109 0 0 Z " fill="#353535" transform="translate(906,179)"/>
<path d="M0 0 C0.33 0.99 0.66 1.98 1 3 C-0.546875 5.69921875 -0.546875 5.69921875 -2.75 8.6875 C-3.82507813 10.17830078 -3.82507813 10.17830078 -4.921875 11.69921875 C-5.95054687 12.83810547 -5.95054687 12.83810547 -7 14 C-7.99 14 -8.98 14 -10 14 C-6.7 9.38 -3.4 4.76 0 0 Z " fill="#434343" transform="translate(153,158)"/>
<path d="M0 0 C1.15628906 0.63228516 1.15628906 0.63228516 2.3359375 1.27734375 C3.33882812 1.82519531 4.34171875 2.37304688 5.375 2.9375 C6.37273438 3.48277344 7.37046875 4.02804688 8.3984375 4.58984375 C9.92070346 5.4149759 11.45128783 6.22564391 13 7 C13 7.66 13 8.32 13 9 C8.33138019 7.39516194 3.90741833 5.02509806 0 2 C0 1.34 0 0.68 0 0 Z " fill="#333333" transform="translate(810,88)"/>
<path d="M0 0 C3.8373228 2.49872182 7.45960866 5.0843836 11 8 C10.67 8.99 10.34 9.98 10 11 C8.32742645 9.5484451 6.66208242 8.08855591 5 6.625 C3.6078125 5.40683594 3.6078125 5.40683594 2.1875 4.1640625 C1.465625 3.44992187 0.74375 2.73578125 0 2 C0 1.34 0 0.68 0 0 Z " fill="#353535" transform="translate(656,348)"/>
<path d="M0 0 C0 0.66 0 1.32 0 2 C-8.261959 6.40774487 -8.261959 6.40774487 -13 7 C-13 6.34 -13 5.68 -13 5 C-11.39967863 4.15930585 -9.79458829 3.32768495 -8.1875 2.5 C-6.84751953 1.80390625 -6.84751953 1.80390625 -5.48046875 1.09375 C-3 0 -3 0 0 0 Z " fill="#1F1F1F" transform="translate(274,196)"/>
<path d="M0 0 C0 3.49889647 -0.54120332 4.0553603 -2.75 6.625 C-3.26046875 7.23601562 -3.7709375 7.84703125 -4.296875 8.4765625 C-6.19607419 10.17538747 -7.51275949 10.5998787 -10 11 C-6.79239749 7.19364503 -3.59253891 3.45436433 0 0 Z " fill="#797979" transform="translate(577,111)"/>
<path d="M0 0 C0.33 0.99 0.66 1.98 1 3 C-0.65234375 5.48046875 -0.65234375 5.48046875 -2.9375 8.1875 C-3.68902344 9.08855469 -4.44054687 9.98960937 -5.21484375 10.91796875 C-5.80394531 11.60503906 -6.39304687 12.29210937 -7 13 C-7.33 12.01 -7.66 11.02 -8 10 C-6.34765625 7.51953125 -6.34765625 7.51953125 -4.0625 4.8125 C-3.31097656 3.91144531 -2.55945313 3.01039063 -1.78515625 2.08203125 C-0.90150391 1.05142578 -0.90150391 1.05142578 0 0 Z " fill="#323232" transform="translate(476,338)"/>
<path d="M0 0 C0.81404297 0.61488281 0.81404297 0.61488281 1.64453125 1.2421875 C2.35996094 1.78101563 3.07539062 2.31984375 3.8125 2.875 C4.52019531 3.40867188 5.22789062 3.94234375 5.95703125 4.4921875 C7.60456297 5.70814781 9.29624211 6.86416141 11 8 C10.67 8.99 10.34 9.98 10 11 C8.32742645 9.5484451 6.66208242 8.08855591 5 6.625 C3.6078125 5.40683594 3.6078125 5.40683594 2.1875 4.1640625 C1.465625 3.44992188 0.74375 2.73578125 0 2 C0 1.34 0 0.68 0 0 Z " fill="#383838" transform="translate(850,224)"/>
<path d="M0 0 C0.99 0.495 0.99 0.495 2 1 C2.625 4.0625 2.625 4.0625 3 7 C3.66 7 4.32 7 5 7 C4.67 8.65 4.34 10.3 4 12 C3.34 12 2.68 12 2 12 C0.86235649 7.73383684 0 4.43513689 0 0 Z " fill="#292929" transform="translate(524,179)"/>
<path d="M0 0 C0.66 0.33 1.32 0.66 2 1 C-0.97 4.3 -3.94 7.6 -7 11 C-7.66 10.67 -8.32 10.34 -9 10 C-6.03 6.7 -3.06 3.4 0 0 Z " fill="#242424" transform="translate(197,250)"/>
<path d="M0 0 C0 0.66 0 1.32 0 2 C0.66 2.66 1.32 3.32 2 4 C0.35 3.67 -1.3 3.34 -3 3 C-3.33 3.66 -3.66 4.32 -4 5 C-4.99 5 -5.98 5 -7 5 C-7 4.34 -7 3.68 -7 3 C-7.66 2.67 -8.32 2.34 -9 2 C-2.25 0 -2.25 0 0 0 Z " fill="#393939" transform="translate(673,182)"/>
<path d="M0 0 C3.66060821 0.58536753 5.54535164 2.083239 8.25 4.5625 C8.95640625 5.20316406 9.6628125 5.84382813 10.390625 6.50390625 C10.92171875 6.99761719 11.4528125 7.49132812 12 8 C11.01 8.33 10.02 8.66 9 9 C7.49704815 7.69088122 5.99770689 6.37761608 4.5 5.0625 C3.6646875 4.33160156 2.829375 3.60070312 1.96875 2.84765625 C1.3190625 2.23792969 0.669375 1.62820312 0 1 C0 0.67 0 0.34 0 0 Z " fill="#313131" transform="translate(853,120)"/>
<path d="M0 0 C0 3.77910478 -0.99703962 4.46106101 -3.5 7.1875 C-4.1496875 7.90292969 -4.799375 8.61835938 -5.46875 9.35546875 C-5.9740625 9.89816406 -6.479375 10.44085938 -7 11 C-7.66 10.34 -8.32 9.68 -9 9 C-6.03 6.03 -3.06 3.06 0 0 Z " fill="#2F2F2F" transform="translate(490,323)"/>
<path d="M0 0 C2 3 2 3 1.625 5.1875 C1.41875 5.785625 1.2125 6.38375 1 7 C-0.32 6.67 -1.64 6.34 -3 6 C-3 4.35 -3 2.7 -3 1 C-2.34 1.66 -1.68 2.32 -1 3 C-0.67 2.01 -0.34 1.02 0 0 Z " fill="#2D2D2D" transform="translate(155,590)"/>
<path d="M0 0 C3.63 2.31 7.26 4.62 11 7 C10.01 7.33 9.02 7.66 8 8 C5.95703125 6.85546875 5.95703125 6.85546875 3.8125 5.1875 C3.09707031 4.64480469 2.38164063 4.10210937 1.64453125 3.54296875 C1.10183594 3.03378906 0.55914063 2.52460937 0 2 C0 1.34 0 0.68 0 0 Z " fill="#363636" transform="translate(825,97)"/>
<path d="M0 0 C4.13333333 6.2 4.13333333 6.2 3.625 9.25 C3.41875 9.8275 3.2125 10.405 3 11 C2.34 10.67 1.68 10.34 1 10 C0.5859375 7.71484375 0.5859375 7.71484375 0.375 4.9375 C0.30023437 4.01839844 0.22546875 3.09929688 0.1484375 2.15234375 C0.09945312 1.44207031 0.05046875 0.73179687 0 0 Z " fill="#272727" transform="translate(923,590)"/>
<path d="M0 0 C2.97 1.65 5.94 3.3 9 5 C9 5.66 9 6.32 9 7 C5.56072421 5.7580393 2.74792181 4.44259716 0 2 C0 1.34 0 0.68 0 0 Z " fill="#454545" transform="translate(443,79)"/>
<path d="M0 0 C3.96 1.98 3.96 1.98 8 4 C7.67 4.99 7.34 5.98 7 7 C5.82780457 6.21654285 4.66236332 5.42297164 3.5 4.625 C2.8503125 4.18414062 2.200625 3.74328125 1.53125 3.2890625 C1.0259375 2.86367188 0.520625 2.43828125 0 2 C0 1.34 0 0.68 0 0 Z " fill="#2B2B2B" transform="translate(697,310)"/>
<path d="M0 0 C2.96404505 2.80804268 5.44499019 5.18315774 7 9 C3.17475764 7.549046 1.80909034 5.61818068 0 2 C0 1.34 0 0.68 0 0 Z " fill="#2E2E2E" transform="translate(505,140)"/>
<path d="M0 0 C3.81684226 1.55500981 6.19195732 4.03595495 9 7 C6.62051228 6.82374165 5.29774151 6.30280227 3.62109375 4.59765625 C2.37884514 3.09350908 1.18623944 1.54870149 0 0 Z " fill="#3E3E3E" transform="translate(727,332)"/>
<path d="M0 0 C3 1 3 1 3 1 Z " fill="#FFFFFF" transform="translate(742,181)"/>
<path d="" fill="#FFFFFF" transform="translate(0,0)"/>
<path d="M0 0 C2 1 2 1 2 1 Z " fill="#FFFFFF" transform="translate(733,180)"/>
<path d="" fill="#FFFFFF" transform="translate(0,0)"/>
<path d="" fill="#FFFFFF" transform="translate(0,0)"/>
<path d="" fill="#FFFFFF" transform="translate(0,0)"/>
<path d="" fill="#FFFFFF" transform="translate(0,0)"/>
<path d="" fill="#FFFFFF" transform="translate(0,0)"/>
<path d="" fill="#FFFFFF" transform="translate(0,0)"/>
<path d="" fill="#FFFFFF" transform="translate(0,0)"/>
<path d="" fill="#FFFFFF" transform="translate(0,0)"/>
<path d="" fill="#FFFFFF" transform="translate(0,0)"/>
<path d="" fill="#FFFFFF" transform="translate(0,0)"/>
<path d="" fill="#FFFFFF" transform="translate(0,0)"/>
</svg>
